<?xml version="1.0" encoding="UTF-8"?>
<svg id="Calque_1" data-name="Calque 1" xmlns="http://www.w3.org/2000/svg" viewBox="0 0 510.3 576">
  <defs>
    <style>
      .cls-1 {
        fill: #fff;
      }
    </style>
  </defs>
  <polygon class="cls-1" points="397.27 431.63 349.15 369.28 241.56 341.68 241.56 341.68 139.81 315.58 139.81 431.63 216.96 431.63 216.96 367.94 238.08 345.39 305.98 431.63 397.27 431.63"/>
  <polygon class="cls-1" points="301.46 127.6 216.96 218.34 216.96 128.54 139.81 128.54 139.81 205.64 211.63 224.07 211.62 224.08 283.43 242.5 389.43 127.6 301.46 127.6"/>
  <polygon class="cls-1" points="171.96 72.53 342.02 72.53 510.01 238.32 510.01 136.69 371.66 0 142 0 0 141.45 0 262.3 29.17 269.73 36.95 271.65 439.58 374.94 439.58 402.62 338.34 503.47 168.28 503.47 .29 337.69 .29 439.32 138.63 576 368.3 576 510.3 434.54 510.3 318.29 503.52 316.55 503.53 316.47 70.72 205.43 70.72 173.38 171.96 72.53"/>
</svg>